<svg xmlns="http://www.w3.org/2000/svg" viewBox="0 0 28.63 28.63"><defs><style>.cls-1{fill:#fff;}</style></defs><g id="Layer_2" data-name="Layer 2"><g id="Layer_1-2" data-name="Layer 1"><path class="cls-1" d="M0,21.48l1.59,0c.23,0,.22.14.22.3v3.68a.65.65,0,0,0,.3-.23l7.73-7.74c.2-.2.32-.22.51,0a9.17,9.17,0,0,0,.82.83c.21.18.18.3,0,.49L6.32,23.62l-2.9,2.9a.92.92,0,0,0-.22.26c.1.08.2,0,.3,0H6.85c.26,0,.34.08.33.33,0,.49,0,1,0,1.48H.2c-.17,0-.2,0-.2-.2C0,26.12,0,23.8,0,21.48Z"/><path class="cls-1" d="M0,.64A1,1,0,0,1,1,0H6.8c.37,0,.37,0,.38.38V1.46c0,.37,0,.37-.4.37H3.19c.05.16.16.22.24.31l7.7,7.7c.27.27.27.27,0,.56s-.54.51-.78.79-.31.18-.49,0L5,6.3,2.11,3.44C2,3.37,2,3.27,1.85,3.23s0,.19,0,.29c0,1.12,0,2.23,0,3.35,0,.26-.08.34-.34.33-.49,0-1,0-1.48,0Z"/><path class="cls-1" d="M21.46,28.63c0-.53,0-1.06,0-1.59,0-.23.14-.22.3-.22h3.68c0-.15-.15-.21-.23-.29l-7.7-7.71c-.28-.28-.28-.28,0-.56s.53-.51.78-.79.3-.2.49,0c1,1.06,2.12,2.12,3.18,3.18l4.56,4.56a3.11,3.11,0,0,1,.2.3.46.46,0,0,0,.1-.37c0-1.11,0-2.23,0-3.35,0-.24.06-.35.32-.34.42,0,.84,0,1.26,0,.18,0,.25.06.25.24q0,3,0,6.09a.92.92,0,0,1-.63.84Z"/><path class="cls-1" d="M25.4,1.86a.62.62,0,0,0-.3,0c-1.11,0-2.22,0-3.32,0-.28,0-.36-.09-.35-.35s0-.8,0-1.2c0-.2,0-.29.26-.29h6a.87.87,0,0,1,.89.89v6c0,.21-.08.27-.28.27-.42,0-.84,0-1.26,0-.24,0-.29-.09-.29-.31,0-1.15,0-2.29,0-3.44a.34.34,0,0,0,0-.22c-.13,0-.19.14-.27.22l-7.69,7.68c-.29.29-.29.29-.58,0s-.55-.56-.83-.83-.15-.25,0-.39c.51-.49,1-1,1.5-1.5l6.3-6.3C25.28,2,25.38,2,25.4,1.86Z"/></g></g></svg>