<svg xmlns="http://www.w3.org/2000/svg" viewBox="0 0 60.98 60.98"><defs><style>.cls-1{fill:gray;}</style></defs><g id="Layer_2" data-name="Layer 2"><g id="Layer_1-2" data-name="Layer 1"><g id="_0pBYx1.tif" data-name="0pBYx1.tif"><path class="cls-1" d="M61,34v3c0,.11-.06.23-.08.34A11,11,0,0,1,47.11,46c-.51-.14-.64,0-.64.5,0,1.77,0,3.54,0,5.3,0,.51.18.72.68.84A4.85,4.85,0,0,1,49.31,61H1.68a1.6,1.6,0,0,1-.77-1.61q0-25.45,0-50.92c0-.65.1-1.32-.66-1.68-.11,0-.17-.22-.25-.33,0-2,0-4,0-5.95C0,.08.08,0,.49,0H38.36a1.4,1.4,0,0,1,.76,1.25c0,1.55,0,3.1,0,4.64A1.2,1.2,0,0,1,38.55,7a.8.8,0,0,0-.39.8c0,1.42,0,2.85,0,4.28,0,.15-.06.32.08.45s.09,0,.11,0l.49-.33A10.77,10.77,0,0,1,49.22,11a10.93,10.93,0,0,1,6.23,14.11c-.19.5-.11.73.35,1a9.89,9.89,0,0,1,2.41,2A11.55,11.55,0,0,1,61,34ZM33.54,52.4a7.34,7.34,0,0,1,1.71-1.8,1,1,0,0,0,.45-.9q0-20.91,0-41.8c0-.56-.2-.71-.73-.71-2.84,0-5.68,0-8.52,0-.57,0-1.15,0-1.72,0a1.23,1.23,0,0,1-1.12-1.25,1.24,1.24,0,0,1,1.12-1.2c.21,0,.43,0,.65,0h9.88c1.55,0,1.38.17,1.38-1.35,0-.94,0-.94-1-.94H4C2.22,2.44,2.46,2.2,2.44,4c0,.74,0,.76.78.76H13.64c.22,0,.44,0,.65,0a1.23,1.23,0,0,1,0,2.45c-.21,0-.43,0-.65,0H4.32c-.93,0-.93,0-.93.91V57.77c0,.46,0,.79.64.79q12.3,0,24.59,0c.47,0,.58-.16.54-.59A4.76,4.76,0,0,1,29.74,55c.21-.35.08-.45-.28-.45H27.08a1.22,1.22,0,0,1-1.39-1.39q0-3.16,0-6.31c0-1,.44-1.43,1.41-1.43H32c1,0,1.4.45,1.41,1.43,0,1.61,0,3.21,0,4.82A.86.86,0,0,0,33.54,52.4Zm13-17.11c.26,0,.37-.23.51-.37.94-.93,1.85-1.86,2.79-2.78.68-.67,1.38-.73,1.94-.2s.52,1.27-.16,2l-.46.47c-1.41,1.4-2.8,2.81-4.22,4.2a1.51,1.51,0,0,0-.49,1.21c0,.87,0,1.75,0,2.62a.85.85,0,0,0,.69,1,9.12,9.12,0,0,0,3.92.44,8.36,8.36,0,0,0,7.44-8.38,8.18,8.18,0,0,0-5.1-7.8c-1.24-.58-1.45-1.14-.82-2.33a8.67,8.67,0,0,0,1-5.17A8.47,8.47,0,0,0,38.52,16a1.6,1.6,0,0,0-.36,1q0,13,0,26a.71.71,0,0,0,.69.83,8.77,8.77,0,0,0,4.51-.44.77.77,0,0,0,.57-.84q0-4.29,0-8.58a1.15,1.15,0,0,0-.37-.89q-1.11-1.08-2.19-2.19a1.27,1.27,0,0,1,0-1.86,1.26,1.26,0,0,1,1.81.06,2,2,0,0,0,.8.6V27.31c0-1,0-1.94,0-2.91a1.26,1.26,0,0,1,2.52-.1,6.77,6.77,0,0,1,0,.78c0,3.17,0,6.35,0,9.52C46.48,34.83,46.41,35.08,46.56,35.29ZM40,58.55c2.5,0,5,0,7.5,0a.73.73,0,0,0,.86-.67,2.41,2.41,0,0,0-3.28-2.68c-1.26.44-1.66.28-2.23-.94a3.87,3.87,0,0,0-3.41-2.41,3.79,3.79,0,0,0-3.84,2.08,1.92,1.92,0,0,1-1.79,1.12,2.38,2.38,0,0,0-2.21,2.32c0,.9.24,1.17,1.13,1.17Zm3.82-7.42a.43.43,0,0,0,.07-.16c0-1.57,0-3.13,0-4.7,0-.48-.27-.37-.56-.29a10.94,10.94,0,0,1-4.59.31c-.46-.06-.62.09-.61.54,0,.63,0,1.27,0,1.9,0,.46.11.61.61.58a6.52,6.52,0,0,1,4.48,1.43A1.42,1.42,0,0,0,43.84,51.13ZM28.16,50c0,.52,0,1,0,1.54s.15.59.56.58,1.1,0,1.66,0,.56-.18.55-.58c0-1,0-2,0-3.08,0-.37-.14-.55-.53-.54H28.68c-.38,0-.53.17-.52.54S28.16,49.5,28.16,50Z"/><path class="cls-1" d="M33.4,15.73c0,1.06,0,2.11,0,3.16S33,20.29,32,20.3H27A1.21,1.21,0,0,1,25.69,19c0-2.16,0-4.33,0-6.49A1.21,1.21,0,0,1,27,11.16h5.06a1.21,1.21,0,0,1,1.31,1.3C33.41,13.55,33.4,14.64,33.4,15.73Zm-2.47,0c0-.5,0-1,0-1.49s-.12-.63-.57-.61-1.11,0-1.67,0c-.37,0-.53.16-.53.53q0,1.58,0,3.15c0,.33.13.52.49.52h1.77c.35,0,.51-.16.51-.5C30.92,16.79,30.93,16.26,30.93,15.73Z"/><path class="cls-1" d="M13.39,15.74c0,1.08,0,2.15,0,3.22a1.21,1.21,0,0,1-1.32,1.34H7A1.2,1.2,0,0,1,5.69,19c0-2.16,0-4.33,0-6.49A1.18,1.18,0,0,1,7,11.17c1.71,0,3.41,0,5.12,0a1.18,1.18,0,0,1,1.29,1.3C13.4,13.56,13.39,14.65,13.39,15.74Zm-2.47,0c0-.53,0-1.07,0-1.6s-.17-.57-.57-.56-1.11,0-1.66,0c-.37,0-.54.15-.54.53,0,1.05,0,2.1,0,3.14,0,.38.17.54.55.53h1.66c.4,0,.58-.15.56-.56S10.92,16.28,10.92,15.79Z"/><path class="cls-1" d="M13.39,27.17c0,1.08,0,2.15,0,3.22a1.21,1.21,0,0,1-1.32,1.34H7a1.2,1.2,0,0,1-1.32-1.34q0-3.24,0-6.48A1.18,1.18,0,0,1,7,22.6c1.7,0,3.41,0,5.12,0a1.18,1.18,0,0,1,1.29,1.3C13.4,25,13.39,26.08,13.39,27.17Zm-2.47,0c0-.53,0-1.07,0-1.6,0-.34-.13-.52-.49-.51H8.65c-.35,0-.5.16-.49.5v3.2c0,.36.18.49.52.49.57,0,1.14,0,1.72,0,.38,0,.53-.16.52-.54S10.92,27.69,10.92,27.18Z"/><path class="cls-1" d="M15.69,27.1c0-1.05,0-2.1,0-3.15a1.22,1.22,0,0,1,1.37-1.36c1.66,0,3.33,0,5,0a1.19,1.19,0,0,1,1.33,1.32q0,3.24,0,6.49a1.2,1.2,0,0,1-1.33,1.32h-5a1.22,1.22,0,0,1-1.37-1.35C15.68,29.28,15.69,28.19,15.69,27.1Zm5.23.1c0-.53,0-1.07,0-1.6,0-.33-.11-.54-.48-.53H18.62c-.33,0-.46.17-.46.48v3.21c0,.34.15.5.5.5.57,0,1.15,0,1.72,0s.56-.19.55-.58S20.92,27.69,20.92,27.2Z"/><path class="cls-1" d="M25.69,27.16c0-1.07,0-2.14,0-3.21a1.22,1.22,0,0,1,1.37-1.36c1.67,0,3.33,0,5,0a1.2,1.2,0,0,1,1.34,1.32q0,3.24,0,6.49a1.21,1.21,0,0,1-1.34,1.32h-5a1.22,1.22,0,0,1-1.37-1.35C25.68,29.31,25.69,28.23,25.69,27.16Zm5.24,0c0-.5,0-1,0-1.48s-.12-.64-.57-.62-1.11,0-1.66,0c-.38,0-.54.16-.54.54,0,1,0,2.09,0,3.14,0,.38.18.53.54.52.58,0,1.15,0,1.72,0,.35,0,.51-.15.51-.5C30.92,28.23,30.93,27.69,30.93,27.16Z"/><path class="cls-1" d="M23.4,15.71c0,1.07,0,2.15,0,3.22A1.22,1.22,0,0,1,22,20.3H17a1.22,1.22,0,0,1-1.35-1.37q0-3.21,0-6.43A1.2,1.2,0,0,1,17,11.16h5.06a1.2,1.2,0,0,1,1.32,1.34C23.41,13.57,23.4,14.64,23.4,15.71Zm-2.48,0c0-.51,0-1,0-1.54s-.17-.57-.57-.56-1.11,0-1.66,0c-.37,0-.55.15-.54.53,0,1,0,2.09,0,3.14,0,.38.16.54.54.53h1.66c.4,0,.58-.15.57-.56S20.92,16.25,20.92,15.73Z"/><path class="cls-1" d="M13.39,38.62c0,1.05,0,2.1,0,3.15A1.22,1.22,0,0,1,12,43.16c-1.65,0-3.29,0-4.94,0a1.2,1.2,0,0,1-1.37-1.35q0-3.21,0-6.43A1.2,1.2,0,0,1,7.05,34h5a1.2,1.2,0,0,1,1.34,1.37C13.4,36.47,13.39,37.55,13.39,38.62Zm-5.23,0c0,.52,0,1,0,1.54s.17.58.57.56h1.66c.37,0,.55-.14.54-.52q0-1.58,0-3.15c0-.38-.16-.53-.53-.53-.56,0-1.11,0-1.67,0-.4,0-.58.15-.57.56S8.16,38.08,8.16,38.59Z"/><path class="cls-1" d="M23.4,38.59c0,1.08,0,2.15,0,3.22A1.2,1.2,0,0,1,22,43.16c-1.67,0-3.34,0-5,0a1.2,1.2,0,0,1-1.34-1.32q0-3.26,0-6.49A1.19,1.19,0,0,1,17,34h5a1.2,1.2,0,0,1,1.36,1.35C23.41,36.45,23.4,37.52,23.4,38.59Zm-2.48,0c0-.49,0-1,0-1.48s-.13-.63-.58-.62-1.1,0-1.66,0c-.37,0-.54.16-.53.54,0,1,0,2.09,0,3.14,0,.38.17.53.54.52h1.72c.35,0,.51-.15.5-.5Z"/><path class="cls-1" d="M33.4,38.58c0,1.07,0,2.14,0,3.21a1.21,1.21,0,0,1-1.35,1.37c-1.67,0-3.34,0-5,0a1.21,1.21,0,0,1-1.36-1.37q0-3.21,0-6.42A1.2,1.2,0,0,1,27,34h5.06a1.2,1.2,0,0,1,1.33,1.33C33.41,36.44,33.4,37.51,33.4,38.58Zm-5.24,0c0,.53,0,1.06,0,1.6,0,.37.14.55.52.54H30.4c.33,0,.53-.11.53-.48,0-1.08,0-2.17,0-3.26,0-.33-.17-.45-.48-.45H28.66c-.35,0-.5.16-.5.5C28.17,37.52,28.16,38,28.16,38.55Z"/><path class="cls-1" d="M5.68,50c0-1.07,0-2.14,0-3.21A1.2,1.2,0,0,1,7,45.46h5.06a1.2,1.2,0,0,1,1.32,1.34q0,3.24,0,6.48a1.19,1.19,0,0,1-1.29,1.31H7a1.19,1.19,0,0,1-1.29-1.31C5.67,52.19,5.68,51.1,5.68,50Zm5.24,0v-1.6c0-.3-.11-.5-.44-.5H8.58c-.29,0-.42.17-.42.46v3.26a.41.41,0,0,0,.47.47h1.78c.38,0,.52-.18.51-.55S10.92,50.55,10.92,50Z"/><path class="cls-1" d="M15.69,50c0-1.07,0-2.14,0-3.21A1.2,1.2,0,0,1,17,45.46h5.06a1.2,1.2,0,0,1,1.32,1.34q0,3.24,0,6.48a1.19,1.19,0,0,1-1.29,1.31H17a1.19,1.19,0,0,1-1.29-1.31C15.68,52.19,15.69,51.1,15.69,50Zm2.47,0c0,.54,0,1.07,0,1.6,0,.35.14.52.49.51h1.78c.36,0,.5-.17.49-.51,0-1,0-2.1,0-3.14,0-.38-.15-.55-.53-.54H18.68c-.38,0-.53.17-.52.54C18.17,49,18.16,49.5,18.16,50Z"/><path class="cls-1" d="M19.49,7.2a1.25,1.25,0,0,1-1.24-1.27,1.24,1.24,0,0,1,1.3-1.19A1.22,1.22,0,0,1,20.75,6,1.24,1.24,0,0,1,19.49,7.2Z"/></g></g></g></svg>