<svg xmlns="http://www.w3.org/2000/svg" viewBox="0 0 32.77 32.36"><defs><style>.cls-1{fill:#004b70;}.cls-2{fill:#fff;}</style></defs><g id="Layer_2" data-name="Layer 2"><g id="Layer_1-2" data-name="Layer 1"><rect class="cls-1" width="32.77" height="32.36" rx="16.18"/><path class="cls-2" d="M16.53,14.44v7a1.56,1.56,0,0,1,0,.48.73.73,0,0,1-.71.54.7.7,0,0,1-.67-.59,1.84,1.84,0,0,1,0-.41V14.38a1.57,1.57,0,0,0-.4.36c-.76.82-1.52,1.66-2.3,2.47a.71.71,0,0,1-1.24-.14.78.78,0,0,1,.23-.87l1.47-1.58c.78-.83,1.55-1.67,2.33-2.49a.77.77,0,0,1,1.32,0q1.89,2,3.76,4.06a1.24,1.24,0,0,1,.18.22.7.7,0,0,1-1,1,4.63,4.63,0,0,1-.7-.7l-2-2.14C16.68,14.48,16.65,14.39,16.53,14.44Z"/></g></g></svg>