<svg xmlns="http://www.w3.org/2000/svg" viewBox="0 0 32.77 32.36"><defs><style>.cls-1{fill:#004b70;}.cls-2{fill:#fff;}</style></defs><g id="Layer_2" data-name="Layer 2"><g id="Layer_1-2" data-name="Layer 1"><rect class="cls-1" width="32.77" height="32.36" rx="16.18"/><path class="cls-2" d="M15.1,19.08v-7a1.56,1.56,0,0,1,0-.48.74.74,0,0,1,.71-.55.71.71,0,0,1,.67.59,1.93,1.93,0,0,1,0,.42v7.06a1.6,1.6,0,0,0,.4-.37c.76-.82,1.52-1.65,2.3-2.47a.71.71,0,0,1,1.24.14.79.79,0,0,1-.23.88L18.79,18.9l-2.33,2.49a.77.77,0,0,1-1.32,0l-3.76-4.05a1.3,1.3,0,0,1-.18-.23.7.7,0,0,1,1-1,5.29,5.29,0,0,1,.71.71l2,2.14C15,19,15,19.13,15.1,19.08Z"/></g></g></svg>