<svg xmlns="http://www.w3.org/2000/svg" viewBox="0 0 23.4 29.79"><defs><style>.cls-1{fill:#a7aeb6;}</style></defs><g id="Layer_2" data-name="Layer 2"><g id="Layer_1-2" data-name="Layer 1"><path class="cls-1" d="M10.25,29.79a.69.69,0,0,1-.32-.64c0-.57,0-1.14,0-1.71,0-.4.17-.62.48-.64a.51.51,0,0,1,.56.56c0,.63,0,1.26,0,1.89a.59.59,0,0,1-.34.54Z"/><path class="cls-1" d="M6.29,29.79A.62.62,0,0,1,6,29.25c0-.64,0-1.28,0-1.92a.52.52,0,0,1,.38-.52.51.51,0,0,1,.65.48c0,.68,0,1.36,0,2a.58.58,0,0,1-.3.47Z"/><path class="cls-1" d="M8.47,19.91H1c-.92,0-1-.1-1-1a3.16,3.16,0,0,1,.05-.81,1.33,1.33,0,0,1,.67-.94A.53.53,0,0,0,1,16.58a7.35,7.35,0,0,1,1.74-4.93A6.68,6.68,0,0,1,4.25,10.3a.45.45,0,0,0,.23-.43c0-.44,0-.89,0-1.33A1.53,1.53,0,0,1,6,6.93H6.7c.21,0,.27-.07.27-.27C7,6,7,5.3,7,4.62A2.57,2.57,0,0,1,9.61,2c3.44,0,6.88,0,10.32,0,.41,0,.41,0,.42-.41A1.52,1.52,0,0,1,21.93,0H23c.38,0,.39,0,.39.39V6.23c0,.31,0,.62,0,.93s-.09.34-.34.33c-.41,0-.81,0-1.22,0A1.51,1.51,0,0,1,20.35,6c0-.25,0-.51,0-.76S20.28,5,20.11,5H10.72c-.62,0-.71.09-.71.71,0,.29,0,.58,0,.87s.07.33.31.32a4.14,4.14,0,0,1,.93,0,1.52,1.52,0,0,1,1.22,1.47c0,.48,0,1,0,1.45a.4.4,0,0,0,.2.38,7.11,7.11,0,0,1,3.21,5.16A5.22,5.22,0,0,1,16,16.68a.41.41,0,0,0,.22.4,1.48,1.48,0,0,1,.77,1.31q0,.43,0,.87a.57.57,0,0,1-.59.64,2.08,2.08,0,0,1-.35,0Zm0-3.05h6.1c.25,0,.34-.08.33-.33a9.45,9.45,0,0,0-.07-1.07,6.14,6.14,0,0,0-2.77-4.35.92.92,0,0,0-.51-.15H5.41a.84.84,0,0,0-.49.15,6.25,6.25,0,0,0-2.86,5.35c0,.39,0,.39.38.39ZM15.24,4H20c.24,0,.34-.07.31-.31a1.08,1.08,0,0,1,0-.18c0-.42,0-.43-.44-.43H9.39A1.37,1.37,0,0,0,8.05,4.26a13.4,13.4,0,0,0-.05,2c0,.76-.17.66.71.67.18,0,.24-.08.24-.25,0-.35,0-.69,0-1A1.52,1.52,0,0,1,10.62,4ZM8.47,18.84h5.67c.49,0,1,0,1.45,0,.22,0,.29-.08.29-.29,0-.48-.13-.63-.62-.63H1.69a.92.92,0,0,0-.29,0c-.26.06-.37.31-.33.69s.25.19.4.19Zm0-8.94h2.62c.25,0,.34-.08.33-.33s0-.7,0-1.05S11.24,8,10.88,8H6.06c-.35,0-.51.16-.51.52s0,.7,0,1.05.08.34.33.33ZM22.33,3.74c0-.8,0-1.6,0-2.41,0-.25-.09-.32-.32-.3-.42,0-.59.19-.59.62V5.83a1.69,1.69,0,0,0,0,.23c.05.27.33.42.69.39s.2-.26.2-.41C22.33,5.27,22.33,4.51,22.33,3.74Z"/><path class="cls-1" d="M3.05,24.35c0,.3,0,.6,0,.9a.55.55,0,0,1-.51.59A.53.53,0,0,1,2,25.29q0-.95,0-1.89a.55.55,0,0,1,.56-.58c.3,0,.49.25.5.63S3.05,24.05,3.05,24.35Z"/><path class="cls-1" d="M13.9,24.33c0-.3,0-.6,0-.9s.22-.61.52-.61a.55.55,0,0,1,.54.6q0,.91,0,1.83a.55.55,0,0,1-.54.59c-.3,0-.51-.24-.52-.61S13.9,24.63,13.9,24.33Z"/><path class="cls-1" d="M11.92,26.31c0-.3,0-.61,0-.92a.53.53,0,0,1,.49-.58.5.5,0,0,1,.55.51,14.83,14.83,0,0,1,0,2,.53.53,0,0,1-.56.51.53.53,0,0,1-.49-.56c0-.32,0-.64,0-1Z"/><path class="cls-1" d="M5,26.33c0,.31,0,.62,0,.93a.54.54,0,0,1-.5.57.51.51,0,0,1-.54-.5,12.39,12.39,0,0,1,0-2,.49.49,0,0,1,.57-.49.51.51,0,0,1,.47.55C5,25.69,5,26,5,26.33Z"/><path class="cls-1" d="M5,22.34c0,.31,0,.62,0,.93a.55.55,0,0,1-.49.59A.52.52,0,0,1,4,23.35a13.35,13.35,0,0,1,0-2,.53.53,0,0,1,.55-.52.55.55,0,0,1,.49.59C5,21.73,5,22,5,22.34Z"/><path class="cls-1" d="M11.92,22.36c0-.31,0-.62,0-.93a.56.56,0,0,1,.51-.6.52.52,0,0,1,.53.54c0,.65,0,1.31,0,2a.52.52,0,0,1-.54.53.55.55,0,0,1-.5-.6C11.91,23,11.92,22.66,11.92,22.36Z"/><path class="cls-1" d="M7,24.33c0,.32,0,.64,0,1a.53.53,0,0,1-.48.55A.51.51,0,0,1,6,25.36a11.7,11.7,0,0,1,0-2.05.51.51,0,0,1,.55-.49.54.54,0,0,1,.48.56v.95Z"/><path class="cls-1" d="M11,24.35c0,.3,0,.6,0,.9s-.24.6-.54.6-.51-.25-.51-.65q0-.87,0-1.74c0-.38.18-.61.49-.64s.53.21.56.6,0,.62,0,.93Z"/><path class="cls-1" d="M9,26.31c0,.33,0,.65,0,1a.52.52,0,1,1-1,0c0-.66,0-1.31,0-2a.51.51,0,0,1,.51-.52.5.5,0,0,1,.51.51C9,25.65,9,26,9,26.31Z"/><path class="cls-1" d="M9,22.35c0,.32,0,.64,0,1a.52.52,0,1,1-1,0q0-1,0-1.92a.52.52,0,1,1,1,0v1Z"/></g></g></svg>