<svg xmlns="http://www.w3.org/2000/svg" viewBox="0 0 104.97 37.55"><defs><style>.cls-1{fill:none;stroke:#a7aeb6;stroke-miterlimit:10;}.cls-2{fill:#a7aeb6;}</style></defs><g id="Layer_2" data-name="Layer 2"><g id="Layer_1-2" data-name="Layer 1"><rect class="cls-1" x="0.5" y="0.5" width="103.97" height="36.55" rx="18.27"/><path class="cls-1" d="M86.44,27.73l5.08-6.4a3.82,3.82,0,0,0,0-4.76l-5.08-6.43"/><path class="cls-2" d="M18.89,20.08a3.37,3.37,0,0,1-.82,1.2,3.91,3.91,0,0,1-1.28.8,4.25,4.25,0,0,1-1.62.29H12.36V14.82h2.81a4.45,4.45,0,0,1,1.62.29,4.06,4.06,0,0,1,1.28.79,3.56,3.56,0,0,1,.82,1.2,4,4,0,0,1,0,3Zm-1.29-2.5a2.42,2.42,0,0,0-.53-.82,2.39,2.39,0,0,0-.83-.54,2.85,2.85,0,0,0-1.08-.2H13.67v5.16h1.49A3.06,3.06,0,0,0,16.24,21a2.52,2.52,0,0,0,.83-.53,2.42,2.42,0,0,0,.53-.82,2.66,2.66,0,0,0,.19-1A2.63,2.63,0,0,0,17.6,17.58Z"/><path class="cls-2" d="M26.37,16H22.1V18h3.79v1.2H22.1v2h4.33v1.19H20.79V14.82h5.58Z"/><path class="cls-2" d="M29.2,17.19a.92.92,0,0,0,.27.3,2.58,2.58,0,0,0,.55.26,9.28,9.28,0,0,0,.9.24c.39.11.74.22,1,.34a2.43,2.43,0,0,1,.76.45,1.7,1.7,0,0,1,.46.61,1.92,1.92,0,0,1,.16.83,2.29,2.29,0,0,1-.2,1,2.12,2.12,0,0,1-.55.71,2.54,2.54,0,0,1-.85.44,3.73,3.73,0,0,1-1.09.15,4.7,4.7,0,0,1-1.67-.3,4.39,4.39,0,0,1-1.47-.91l.79-.95a4.71,4.71,0,0,0,1.11.73,3.08,3.08,0,0,0,1.28.26,1.64,1.64,0,0,0,1-.26.83.83,0,0,0,.36-.7A.87.87,0,0,0,32,20a.66.66,0,0,0-.26-.3,2.1,2.1,0,0,0-.52-.25c-.22-.08-.5-.16-.86-.25a9.33,9.33,0,0,1-1.07-.31,3,3,0,0,1-.79-.43,1.88,1.88,0,0,1-.49-.63,2.15,2.15,0,0,1-.16-.89A2,2,0,0,1,28,16a2.13,2.13,0,0,1,.53-.7,2.43,2.43,0,0,1,.81-.45,3.37,3.37,0,0,1,1-.15,4.1,4.1,0,0,1,2.74.95l-.71,1a4.68,4.68,0,0,0-1-.58,2.76,2.76,0,0,0-1-.2,1.39,1.39,0,0,0-.91.27.8.8,0,0,0-.32.64A.93.93,0,0,0,29.2,17.19Z"/><path class="cls-2" d="M40.52,18.48a2.45,2.45,0,0,1-.65.81,2.9,2.9,0,0,1-1,.49,4.1,4.1,0,0,1-1.18.17h-1.5v2.42H34.91V14.82h3a3.72,3.72,0,0,1,1.19.18,2.42,2.42,0,0,1,.9.52,2.28,2.28,0,0,1,.58.79,2.69,2.69,0,0,1,.2,1.05A2.49,2.49,0,0,1,40.52,18.48ZM39,16.36A1.93,1.93,0,0,0,37.77,16H36.23v2.73h1.54a1.78,1.78,0,0,0,1.2-.37,1.25,1.25,0,0,0,.44-1A1.21,1.21,0,0,0,39,16.36Z"/><path class="cls-2" d="M42.11,14.82h1.32v6.36h4v1.19H42.11Z"/><path class="cls-2" d="M56,22.37h-1.4l-.77-1.82H50.28l-.78,1.82H48.14l3.32-7.6h1.23Zm-4-6-1.29,3h2.6Z"/><path class="cls-2" d="M57.18,16V14.82h6v1L58.76,21.2h4.45v1.17H57v-1L61.49,16Z"/><path class="cls-2" d="M72.1,22.37H70.7l-.77-1.82H66.36l-.77,1.82H64.23l3.32-7.6h1.23Zm-4-6-1.29,3h2.6Z"/><path class="cls-2" d="M78.23,22.37l-1.86-2.63H74.71v2.63H73.39V14.82h3.37a3.89,3.89,0,0,1,1.17.17,2.49,2.49,0,0,1,.88.48,1.88,1.88,0,0,1,.55.75,2.48,2.48,0,0,1,.2,1,2.42,2.42,0,0,1-.14.84,2.13,2.13,0,0,1-.37.66,2.41,2.41,0,0,1-.56.49,3.41,3.41,0,0,1-.73.31l2,2.85Zm-.43-6A1.86,1.86,0,0,0,76.64,16H74.71v2.55h1.94a1.74,1.74,0,0,0,1.14-.35,1.27,1.27,0,0,0,0-1.88Z"/></g></g></svg>