<svg xmlns="http://www.w3.org/2000/svg" viewBox="0 0 81.52 63.45"><defs><style>.cls-1{fill:gray;}</style></defs><g id="Layer_2" data-name="Layer 2"><g id="Layer_1-2" data-name="Layer 1"><path class="cls-1" d="M0,40.63a23.17,23.17,0,0,1,.89-2.54,10,10,0,0,1,13.85-4.53c.83.44.83.44.83-.52,0-1.57,0-3.13,0-4.7,0-.46-.06-.61-.57-.38a3.65,3.65,0,0,1-3.74-6.25Q24.82,11.3,38.36.92a3.6,3.6,0,0,1,4.82,0C47.61,4.31,52,7.71,56.45,11.1a1.4,1.4,0,0,1,.7,1.48,1.26,1.26,0,0,1-1,1A1.66,1.66,0,0,1,54.76,13l-8.9-6.83L41.75,3.06a1.31,1.31,0,0,0-2,0L13.37,23.31c-.23.18-.46.36-.67.56a1,1,0,0,0-.16,1.49,1,1,0,0,0,1.48.21c.77-.53,1.49-1.1,2.23-1.67L39.55,6c1.05-.81,1.37-.81,2.45,0l24.87,19.1.45.33A1.13,1.13,0,0,0,69,25.34a1.08,1.08,0,0,0-.33-1.59c-2.47-1.93-5-3.83-7.44-5.74-.65-.5-1.31-1-2-1.51a1.28,1.28,0,1,1,1.56-2c3.2,2.44,6.41,4.88,9.59,7.37A3.65,3.65,0,0,1,66.58,28c-.6-.29-.65-.11-.64.42,0,1.51,0,3,0,4.54,0,1,0,1,.9.57A10,10,0,0,1,81,39c.22.59.35,1.22.52,1.83V44c-.62,2.92-2,5.43-4.68,6.86a2.78,2.78,0,0,0-1.66,3.1c.11,1.78,0,1.83,1.85,1.78a4.14,4.14,0,0,1,4.49,2.9v1.91a3.74,3.74,0,0,1-3.31,2.83c-2.27.14-4.56.08-6.84,0a1.24,1.24,0,0,1-1.25-1.29,1.3,1.3,0,0,1,1.29-1.27c.24,0,.48,0,.71,0h5c1.25,0,1.86-.39,1.9-1.2s-.63-1.28-1.9-1.28H4.38a5.21,5.21,0,0,0-.79,0,1.22,1.22,0,0,0-1.1,1.18A1.23,1.23,0,0,0,3.58,60.8a10.47,10.47,0,0,0,1.12,0H65.27a4.18,4.18,0,0,1,1.27.08,1.24,1.24,0,0,1,.94,1.24,1.22,1.22,0,0,1-.91,1.18,3.61,3.61,0,0,1-1.18.1q-30.48,0-61,0c-2.17,0-3.68-.83-4.42-2.92V58.62a4.08,4.08,0,0,1,4.33-2.9c2,0,1.91,0,2-2a2.54,2.54,0,0,0-1.53-2.78A9.6,9.6,0,0,1,0,44Zm18.18-.08v7.32c0,2.34,0,4.67,0,7,0,.51.05.88.71.86,1,0,2,0,2.95,0a.51.51,0,0,0,.58-.58c0-.51,0-1,0-1.51,0-1,.53-1.53,1.28-1.55s1.28.59,1.32,1.5a9.11,9.11,0,0,1,0,1.28c-.06.65.2.88.87.87,3.34,0,6.68,0,10,0,.69,0,.85-.27.85-.9q0-9.27,0-18.54c0-.71-.23-.91-.92-.91q-4.94,0-9.87,0c-.72,0-1,.22-1,1,0,2.55,0,5.1,0,7.64,0,1.36,0,2.71,0,4.06a1.3,1.3,0,1,1-2.59,0,3.85,3.85,0,0,1,0-.48V34.79c0-1.56.43-2,2-2H37.3c1.66,0,2.06.4,2.06,2.07,0,6.63,0,13.27,0,19.9,0,.7.16,1,.93,1q11.05,0,22.12,0c.74,0,1-.23,1-1q0-14.17,0-28.34a1.52,1.52,0,0,0-.67-1.33Q52.09,17,41.53,8.89A1,1,0,0,0,40,8.9Q29.44,17,18.83,25.13a1.51,1.51,0,0,0-.66,1.34C18.19,31.16,18.18,35.86,18.18,40.55ZM15.57,42.4V38.1a1.35,1.35,0,0,0-.4-1.07A7.5,7.5,0,0,0,7.06,35.5a7.27,7.27,0,0,0-4.57,7A7.06,7.06,0,0,0,7,49.2a7.24,7.24,0,0,0,8-1.28,1.58,1.58,0,0,0,.6-1.31C15.55,45.21,15.57,43.8,15.57,42.4Zm50.38,0c0,1.37,0,2.75,0,4.13A1.71,1.71,0,0,0,66.6,48a7.53,7.53,0,0,0,8.32,1.1,7.41,7.41,0,0,0,4-7.55,7.07,7.07,0,0,0-4.78-6.1,7.2,7.2,0,0,0-7.69,1.5,1.52,1.52,0,0,0-.54,1.26C66,39.58,66,41,66,42.39ZM15.57,53.25v-1c0-1.44,0-1.41-1.25-.82a1.1,1.1,0,0,0-.74,1.23,21,21,0,0,1,0,2.38c0,.74.41.74.92.72s1.13.15,1.08-.73C15.54,54.42,15.57,53.84,15.57,53.25ZM66,50.79c0,1.56,0,3,0,4.41,0,.83.74.46,1.17.52s.81,0,.79-.59c0-1,0-1.91,0-2.87a.68.68,0,0,0-.41-.69ZM8.81,54.08c0,1.8,0,1.81,1.71,1.65.39,0,.58-.18.57-.58q0-1.07,0-2.13c0-.39-.16-.55-.56-.59-1.72-.14-1.72-.16-1.72,1.57ZM72.71,54c0-1.72,0-1.71-1.7-1.59-.38,0-.58.16-.58.56,0,.72,0,1.43,0,2.14,0,.38.14.56.55.6,1.65.17,1.73.11,1.73-1.56Z"/><path class="cls-1" d="M50.81,49.74H43.32c-1.67,0-2.42-.76-2.43-2.43,0-.9,0-1.81,0-2.71a2,2,0,0,1,1.15-2c.48-.23.44-.61.44-1V34.72c0-1.46.45-1.92,1.89-1.92H57.18c1.46,0,1.92.45,1.92,1.9,0,2.31,0,4.61,0,6.92a.94.94,0,0,0,.56,1,1.92,1.92,0,0,1,1,1.84c0,1,0,2,0,3a2,2,0,0,1-2.24,2.22C55.9,49.75,53.35,49.73,50.81,49.74Zm0-2.61h6c1.36,0,1.34,0,1.34-1.34,0-.62-.19-.84-.82-.84-4.32,0-8.64,0-13,0-1,0-.79.59-.82,1.16s0,1.07.86,1C46.49,47.09,48.64,47.13,50.79,47.13Zm-1.31-8.22c0-.93,0-1.85,0-2.78,0-.49-.15-.74-.68-.73-1,0-2,0-3,0-.51,0-.71.2-.7.71,0,1.85,0,3.7,0,5.56,0,.45.14.69.64.68h3.09c.48,0,.68-.18.67-.66C49.47,40.77,49.48,39.84,49.48,38.91Zm2.62-.07c0,.93,0,1.85,0,2.78,0,.48.13.75.67.73,1,0,2.07,0,3.1,0,.43,0,.63-.17.63-.61,0-1.91,0-3.81,0-5.72,0-.44-.2-.62-.63-.61-1,0-2.06,0-3.1,0-.53,0-.68.26-.67.74C52.11,37,52.1,37.94,52.1,38.84Z"/><path class="cls-1" d="M40.75,27.79A6.82,6.82,0,1,1,47.63,21,6.85,6.85,0,0,1,40.75,27.79Zm2.73-8H44c.82,0,.88-.12.46-.85a4.2,4.2,0,0,0-1.07-1.26c-.35-.27-.77-.71-1.16-.53s-.13.76-.19,1.16a.22.22,0,0,0,0,.08C42.07,19.87,42,19.73,43.48,19.74Zm-4-1.42c0-.21,0-.42,0-.63,0-.71-.24-.76-.78-.45a4.18,4.18,0,0,0-1.3,1.13c-.27.36-.71.77-.54,1.17s.75.19,1.15.19C39.58,19.74,39.45,19.89,39.45,18.32Zm-1.33,4c-.23,0-.47,0-.71,0-.57-.05-.73.14-.42.66a4.54,4.54,0,0,0,1.78,1.75c.42.23.7.21.69-.38,0-.44,0-.89,0-1.34s-.2-.72-.7-.69Zm5.47,0c-1.66,0-1.52-.14-1.53,1.43,0,.24,0,.47,0,.71,0,.43.21.49.56.33a3.91,3.91,0,0,0,1.46-1.18c.28-.34.72-.74.54-1.15S43.9,22.42,43.59,22.35Z"/></g></g></svg>