<svg xmlns="http://www.w3.org/2000/svg" viewBox="0 0 29.53 29.56"><defs><style>.cls-1{fill:#fff;}</style></defs><g id="Layer_2" data-name="Layer 2"><g id="Layer_1-2" data-name="Layer 1"><path class="cls-1" d="M23,0h1.5l.17,0A5.75,5.75,0,0,1,29,3.27,6.24,6.24,0,0,1,29.53,5v1.5c0,.06,0,.13,0,.19a5.62,5.62,0,0,1-3.94,4.56A5.55,5.55,0,0,1,19.7,9.89c-.18-.17-.29-.12-.45,0L13.7,13.22a.36.36,0,0,0-.19.51,6.61,6.61,0,0,1,.2,3.66.38.38,0,0,0,.25.51q2.45,1.11,4.88,2.27c.22.1.33,0,.48-.13a5.8,5.8,0,0,1,9,.12A6.11,6.11,0,0,1,29.53,23v1.5c0,.09,0,.17-.05.26a5.8,5.8,0,0,1-11.43-1.95.44.44,0,0,0-.31-.56c-1.59-.73-3.18-1.46-4.76-2.21a.4.4,0,0,0-.59.14,7,7,0,0,1-11.5-.8A7.77,7.77,0,0,1,0,16.78V15.05l.09-.42A6.72,6.72,0,0,1,5,9.27a6.68,6.68,0,0,1,7,1.87.34.34,0,0,0,.51.06L18,7.86a.38.38,0,0,0,.2-.51,5.78,5.78,0,0,1,2.2-6.3A6.12,6.12,0,0,1,23,0ZM11.51,15.91a4.6,4.6,0,0,0-4.59-4.57,4.58,4.58,0,1,0,4.59,4.57ZM23.76,2.33a3.48,3.48,0,0,0-3.43,3.45,3.44,3.44,0,0,0,6.87,0A3.49,3.49,0,0,0,23.76,2.33Zm0,24.87a3.44,3.44,0,1,0,0-6.87,3.44,3.44,0,0,0,0,6.87Z"/></g></g></svg>