<svg xmlns="http://www.w3.org/2000/svg" viewBox="0 0 30.04 33.01"><defs><style>.cls-1{fill:#fff;}</style></defs><g id="Layer_2" data-name="Layer 2"><g id="Layer_1-2" data-name="Layer 1"><path class="cls-1" d="M19.54,33a12.09,12.09,0,0,1-2.3-.57,9.45,9.45,0,0,1-4.56-3.64.72.72,0,0,0-.68-.35q-4.1,0-8.21,0A3.69,3.69,0,0,1,0,25.28a3.26,3.26,0,0,1,0-.54v-21A3.68,3.68,0,0,1,3.74,0H14.62a1.11,1.11,0,0,1,.86.36l6.7,7a1.18,1.18,0,0,1,.35.87c0,1.88,0,3.76,0,5.64a.4.4,0,0,0,.35.46,9.42,9.42,0,0,1,7,7.45,7.39,7.39,0,0,1,.14.82v1.8c-.05.29-.08.57-.14.85a9.45,9.45,0,0,1-6.21,7.22,13.53,13.53,0,0,1-2.09.5ZM1.45,14.23V24.47a2.68,2.68,0,0,0,.06.8A2.23,2.23,0,0,0,3.78,27h7.6c.33,0,.31-.11.23-.36a9,9,0,0,1-.34-4.94c.05-.28,0-.35-.3-.34H5.85a2,2,0,0,1-.35,0,.71.71,0,0,1-.63-.67A.72.72,0,0,1,5.4,20a2,2,0,0,1,.54,0h5.51c.2,0,.38,0,.47-.24a7.41,7.41,0,0,1,.82-1.45c.06-.1.2-.19.12-.31s-.2,0-.3,0H5.89c-.66,0-1-.25-1-.72s.33-.73,1-.73h8a1,1,0,0,0,.7-.24,9.52,9.52,0,0,1,6.11-2.13c.3,0,.39-.1.38-.39,0-1.49,0-3,0-4.47,0-.34-.12-.42-.43-.41H17.28a3.09,3.09,0,0,1-2.61-1.29,3.3,3.3,0,0,1-.6-2.06c0-1.19,0-2.39,0-3.58,0-.31-.08-.43-.42-.42-3.27,0-6.54,0-9.82,0a3.09,3.09,0,0,0-.67.06A2.34,2.34,0,0,0,1.44,3.86C1.46,7.32,1.45,10.78,1.45,14.23ZM20.57,31.59a8,8,0,1,0-8-8A8,8,0,0,0,20.57,31.59ZM20,7.34a.17.17,0,0,1,0-.07L15.76,2.79s-.1-.14-.18-.1-.07.15-.07.23c0,1,0,1.93,0,2.9a1.55,1.55,0,0,0,1.5,1.51C18,7.38,19,7.34,20,7.34Z"/><path class="cls-1" d="M9.06,14.42H5.68A.74.74,0,0,1,5,14a.7.7,0,0,1,.46-1,2.52,2.52,0,0,1,.48,0H12.2a3.42,3.42,0,0,1,.45,0,.7.7,0,0,1,.6.75.69.69,0,0,1-.71.65H9.06Z"/><path class="cls-1" d="M19.85,26.25v-7a1.56,1.56,0,0,1,0-.48.72.72,0,0,1,.71-.54.7.7,0,0,1,.67.58,2,2,0,0,1,0,.42v7.06a1.57,1.57,0,0,0,.4-.36c.76-.83,1.52-1.66,2.3-2.47a.71.71,0,0,1,1.24.14.78.78,0,0,1-.23.87l-1.47,1.58c-.78.83-1.55,1.67-2.33,2.49a.78.78,0,0,1-1.32,0c-1.26-1.35-2.51-2.71-3.76-4.06a1.24,1.24,0,0,1-.18-.22.7.7,0,0,1,1-1,5.21,5.21,0,0,1,.71.7l2,2.14C19.7,26.21,19.73,26.3,19.85,26.25Z"/></g></g></svg>