<svg xmlns="http://www.w3.org/2000/svg" viewBox="0 0 26.97 21.59"><defs><style>.cls-1{fill:#004b70;}</style></defs><g id="Layer_2" data-name="Layer 2"><g id="Layer_1-2" data-name="Layer 1"><g id="z9hQEC.tif"><path class="cls-1" d="M27,18.36a1.09,1.09,0,0,1-1.08.59H21.76a.41.41,0,0,0-.46.31,3.48,3.48,0,0,1-3.37,2.34,3.51,3.51,0,0,1-3.28-2.37.36.36,0,0,0-.42-.28H1.15a1.83,1.83,0,0,1-.47,0A.85.85,0,0,1,0,18a.87.87,0,0,1,.8-.77H14.2a.41.41,0,0,0,.47-.33,3.51,3.51,0,0,1,6.64,0,.36.36,0,0,0,.43.29c1.39,0,2.77,0,4.16,0a1.07,1.07,0,0,1,1.07.6Zm-7.21-.29A1.78,1.78,0,1,0,18,19.86,1.77,1.77,0,0,0,19.76,18.07Z"/><path class="cls-1" d="M27,3.79a1,1,0,0,1-1.07.59c-1.38,0-2.75,0-4.13,0a.41.41,0,0,0-.47.33,3.52,3.52,0,0,1-6.64,0,.38.38,0,0,0-.43-.31H1.05a1,1,0,0,1-.76-.23A.86.86,0,0,1,.6,2.68a1.51,1.51,0,0,1,.52-.06H14.17a.45.45,0,0,0,.51-.35A3.43,3.43,0,0,1,17.09.09l.3-.09h1.16l.1,0A3.49,3.49,0,0,1,21.33,2.4c.07.2.19.22.36.22h4.18a1.08,1.08,0,0,1,1.1.59ZM19.76,3.5A1.78,1.78,0,1,0,18,5.3,1.79,1.79,0,0,0,19.76,3.5Z"/><path class="cls-1" d="M27,11.05a1,1,0,0,1-1,.6H12.84c-.27,0-.41,0-.51.34a3.52,3.52,0,0,1-6.61.07c-.16-.41-.16-.41-.61-.41H.9A.84.84,0,0,1,0,10.73a.83.83,0,0,1,.89-.8H5.24a.4.4,0,0,0,.45-.32,3.52,3.52,0,0,1,6.66,0,.37.37,0,0,0,.41.29H25.94a1,1,0,0,1,1,.6ZM7.24,10.79A1.73,1.73,0,0,0,9,12.56a1.78,1.78,0,1,0-1.78-1.77Z"/></g></g></g></svg>