<svg xmlns="http://www.w3.org/2000/svg" viewBox="0 0 32.36 32.36"><defs><style>.cls-1{fill:#a7aeb6;}.cls-2{fill:#fff;}</style></defs><g id="Layer_2" data-name="Layer 2"><g id="Layer_1-2" data-name="Layer 1"><rect class="cls-1" width="32.36" height="32.36" rx="16.18"/><path class="cls-2" d="M9.31,20h.76c.11,0,.11.07.11.15,0,.53,0,1.07,0,1.61v.15c.07,0,.1-.07.14-.1L14,18.07c.1-.1.15-.11.24,0a4.89,4.89,0,0,0,.4.39c.1.09.09.15,0,.24L12.34,21,11,22.42a.26.26,0,0,0-.11.12c.05,0,.1,0,.14,0h1.61c.13,0,.17,0,.16.16s0,.47,0,.71H9.4c-.08,0-.1,0-.1-.1C9.31,22.22,9.31,21.11,9.31,20Z"/><path class="cls-2" d="M9.31,10a.48.48,0,0,1,.5-.31h2.76c.18,0,.18,0,.18.19v.51c0,.18,0,.18-.19.18H10.84a.27.27,0,0,0,.11.14l3.7,3.7c.13.14.13.14,0,.27l-.38.38c-.09.1-.15.09-.24,0-.77-.78-1.56-1.56-2.34-2.34l-1.37-1.38a.38.38,0,0,0-.12-.1s0,.09,0,.14c0,.53,0,1.07,0,1.61,0,.12,0,.16-.16.16l-.71,0Z"/><path class="cls-2" d="M19.61,23.43c0-.26,0-.51,0-.77,0-.11.07-.1.14-.1h1.77a.27.27,0,0,0-.11-.14l-3.69-3.7c-.14-.14-.14-.14,0-.27s.26-.25.38-.38.14-.1.23,0l1.53,1.52L22,21.78a.54.54,0,0,1,.09.15.2.2,0,0,0,.05-.18c0-.53,0-1.07,0-1.61,0-.11,0-.17.16-.16h.6c.09,0,.12,0,.12.12V23a.46.46,0,0,1-.3.41Z"/><path class="cls-2" d="M21.5,10.57a.33.33,0,0,0-.14,0h-1.6c-.13,0-.17,0-.16-.17s0-.38,0-.57,0-.14.13-.14h2.89a.42.42,0,0,1,.43.43V13c0,.1,0,.13-.13.13h-.61c-.11,0-.14-.05-.14-.15,0-.55,0-1.1,0-1.65,0,0,0-.08,0-.11s-.09.07-.13.11L18.34,15c-.14.14-.14.14-.28,0s-.26-.27-.4-.4-.07-.12,0-.19l.72-.72,3-3S21.49,10.63,21.5,10.57Z"/></g></g></svg>