<svg xmlns="http://www.w3.org/2000/svg" viewBox="0 0 32.01 21.7"><defs><style>.cls-1{fill:#a7aeb6;}</style></defs><g id="Layer_2" data-name="Layer 2"><g id="Layer_1-2" data-name="Layer 1"><path class="cls-1" d="M0,11.21a5.2,5.2,0,0,1,.39-1.15A3.1,3.1,0,0,1,2.61,8.45C2.89,8.39,3,8.3,3,8,3,6.35,3,4.7,3,3a3.17,3.17,0,0,1,.61-1.9A3,3,0,0,1,5.81,0a5.19,5.19,0,0,1,.56,0H25.51a4.05,4.05,0,0,1,1.65.29A2.75,2.75,0,0,1,28.88,2.8c.11,1.7,0,3.41,0,5.12,0,.34.09.48.45.55a3.3,3.3,0,0,1,2.58,2.77,5.42,5.42,0,0,1,.07.81v3.81a1.25,1.25,0,0,1-1.32,1.36c-.26,0-.32.11-.31.34v2.71A1.26,1.26,0,0,1,29,21.66q-.45,0-.9,0a1.27,1.27,0,0,1-1.41-1.39c0-.88,0-1.77,0-2.65,0-.29-.06-.4-.38-.4q-10.3,0-20.61,0c-.29,0-.37.1-.37.38,0,.88,0,1.77,0,2.65a1.24,1.24,0,0,1-.92,1.36,5.06,5.06,0,0,1-1.86,0,1.19,1.19,0,0,1-.92-1.22c0-.92,0-1.83,0-2.75,0-.26-.07-.36-.34-.37A1.3,1.3,0,0,1,0,16.33Zm15.93,1.72H30.36q.26,0,.24-.24a11.81,11.81,0,0,0,0-1.19A1.92,1.92,0,0,0,29,9.72a4.18,4.18,0,0,0-1-.07H3.21A2,2,0,0,0,1.3,11.32a4.24,4.24,0,0,0-.05.87c0,.86-.1.74.72.74ZM16,1.29H6.08A1.61,1.61,0,0,0,4.34,2.64,8.48,8.48,0,0,0,4.2,4.15c0,1.19,0,2.38,0,3.56,0,.68-.1.61.62.61.41,0,.41,0,.42-.41,0-.87,0-1.75,0-2.62a1.2,1.2,0,0,1,1.06-1.1,3.15,3.15,0,0,1,.53,0h6.81a2.68,2.68,0,0,1,.4,0,1.26,1.26,0,0,1,1.23,1.4c0,.79,0,1.59,0,2.38,0,.31.1.41.39.38a3,3,0,0,1,.6,0c.28,0,.38-.09.37-.38q0-1.17,0-2.34a1.32,1.32,0,0,1,.9-1.38,2.22,2.22,0,0,1,.68-.08h6.9a4,4,0,0,1,.5,0,1.22,1.22,0,0,1,1,.91,1.44,1.44,0,0,1,.05.46V7.81c0,.53,0,.52.54.52.22,0,.31-.07.31-.31,0-1.65,0-3.31,0-5A1.61,1.61,0,0,0,26,1.31a5.33,5.33,0,0,0-.56,0Zm0,12.93H1.5c-.17,0-.25.07-.25.24v1.25c0,.17.09.24.25.24H30.32c.2,0,.29-.07.28-.27v-.94c0-.52,0-.52-.5-.52Zm-5.57-5.9h3.4c.26,0,.35-.08.34-.34,0-.74,0-1.48,0-2.21,0-.24-.08-.31-.31-.31-2.27,0-4.55,0-6.83,0-.24,0-.33.07-.33.32,0,.73,0,1.46,0,2.18,0,.28.09.36.36.36ZM21.74,5.47c-1.13,0-2.26,0-3.4,0-.25,0-.35.08-.34.34,0,.72,0,1.45,0,2.18,0,.26.09.34.34.34h6.8c.25,0,.33-.08.33-.32,0-.73,0-1.46,0-2.19,0-.27-.09-.36-.36-.35C24,5.48,22.87,5.47,21.74,5.47ZM4,18.81V18c0-.8,0-.79-.8-.78-.24,0-.3.09-.3.32,0,.68,0,1.37,0,2.06,0,.91-.18.76.82.78.21,0,.27-.09.27-.29C4,19.67,4,19.24,4,18.81Zm24,0c0,.27,0,.54,0,.81,0,.91-.15.77.8.79.23,0,.3-.09.3-.32,0-.68,0-1.37,0-2,0-.92.18-.77-.82-.79-.21,0-.28.09-.27.28Z"/></g></g></svg>