<svg xmlns="http://www.w3.org/2000/svg" viewBox="0 0 54.2 54.14"><defs><style>.cls-1{fill:gray;}</style></defs><g id="Layer_2" data-name="Layer 2"><g id="Layer_1-2" data-name="Layer 1"><g id="_2lHbT7.tif" data-name="2lHbT7.tif"><path class="cls-1" d="M54.2,21.59v1.69c-.06.17-.12.34-.17.51A5.64,5.64,0,0,1,51,27.48a1.09,1.09,0,0,0-.75,1.18q0,12,0,24.08a1.46,1.46,0,0,1-.56,1.4H12.39a1,1,0,0,1-.43-1.2c.19-.49.64-.57,1.09-.59H30.31c1.1,0,1.1,0,1.1-1.13q0-9,0-17.9c0-1.07.31-1.39,1.39-1.39h8.83c.87,0,1.73,0,2.6,0a1,1,0,0,1,1.19,1.16c0,.21,0,.43,0,.64V51.25c0,.2,0,.39,0,.58,0,.36.16.51.51.51h1.59c.79,0,.81,0,.81-.79V28.73c0-.41-.06-.66-.57-.66a5.59,5.59,0,0,1-4.64-2.31c-.24-.3-.37-.28-.59,0a6.4,6.4,0,0,1-9.9,0c-.25-.34-.4-.28-.62,0a6.4,6.4,0,0,1-9.87,0c-.24-.32-.38-.32-.62,0a6.41,6.41,0,0,1-9.87,0c-.26-.36-.39-.31-.65,0a5.66,5.66,0,0,1-4.46,2.27c-.69,0-.71,0-.71.72V51.56c0,.75,0,.78.77.78h3a1.33,1.33,0,0,1,1.07.34c.36.41.29.86-.23,1.45H4.55A1.42,1.42,0,0,1,4,52.8c0-4.7,0-9.4,0-14.1,0-3.42,0-6.83,0-10.25a.78.78,0,0,0-.56-.88,4.63,4.63,0,0,1-1.31-.79A6.34,6.34,0,0,1,0,23.28V21.59C.34,19.78.69,18,1,16.15a2.61,2.61,0,0,1,.58-1.22c1.92-2.28,3.82-4.57,5.74-6.84a1.44,1.44,0,0,0,.36-1q0-3,0-5.91C7.69.29,8,0,8.87,0H45.33c.89,0,1.18.29,1.18,1.17q0,3,0,5.91a1.44,1.44,0,0,0,.36,1c1.93,2.29,3.84,4.59,5.77,6.88a2.38,2.38,0,0,1,.55,1.18C53.51,18,53.86,19.78,54.2,21.59ZM43.58,45.35V39c0-.67,0-.69-.69-.69H34c-.65,0-.68,0-.68.7V51.64c0,.65,0,.7.69.7H42.9c.63,0,.68-.05.68-.71ZM27.08,6.91H43.7c1,0,1,0,1-1V2.78c0-.94,0-.95-.94-.95H10.34c-.77,0-.81,0-.82.8V6c0,.88,0,.89.88.89Zm20.21,9.87c-1.2,0-2.4,0-3.6,0-.43,0-.6.13-.54.59.22,1.67.42,3.35.62,5a4.41,4.41,0,0,0,.95,2.42,4.47,4.47,0,0,0,4.37,1.38,3.93,3.93,0,0,0,3.25-4.38c-.27-1.5-.56-3-.81-4.51a.55.55,0,0,0-.64-.53C49.69,16.79,48.49,16.78,47.29,16.78ZM7,16.78c-1.21,0-2.43,0-3.65,0a.57.57,0,0,0-.66.56c-.24,1.44-.49,2.88-.77,4.31a3.62,3.62,0,0,0,.76,3.07,4.23,4.23,0,0,0,3.9,1.53,3.94,3.94,0,0,0,3.8-3.47c.26-1.83.47-3.66.7-5.49,0-.38-.12-.51-.48-.5Zm10.14,0c-1.2,0-2.4,0-3.59,0-.4,0-.58.13-.63.53-.15,1.29-.32,2.58-.49,3.87a5,5,0,0,0,0,1.93c.64,2.49,2.81,3.62,5.5,3a4,4,0,0,0,3-3.85c.07-1.64.15-3.27.27-4.9,0-.46-.1-.59-.54-.59C19.48,16.79,18.3,16.78,17.12,16.78Zm20,0H33.46c-.31,0-.49.06-.47.44.11,1.72.19,3.44.29,5.16a4.07,4.07,0,0,0,.44,1.67,4.17,4.17,0,0,0,4.34,2.19,3.94,3.94,0,0,0,3.81-4.31c-.13-1.54-.39-3.07-.57-4.6,0-.42-.23-.57-.65-.56C39.47,16.79,38.29,16.78,37.11,16.78Zm-10,0H23.8c-.7,0-.76.07-.79.79-.06,1.21-.14,2.42-.2,3.63a5.24,5.24,0,0,0,.36,2.74,4.11,4.11,0,0,0,4.22,2.31,4,4,0,0,0,4-4.25c0-1.54-.15-3.09-.21-4.63,0-.45-.23-.61-.67-.6C29.39,16.79,28.26,16.78,27.13,16.78Zm-.06-1.84h3.28c.38,0,.57-.15.51-.55-.27-1.72-.54-3.44-.8-5.16,0-.37-.21-.5-.58-.5H24.72c-.37,0-.53.13-.58.5-.26,1.72-.53,3.44-.8,5.16-.06.4.13.55.51.55ZM17.5,15h3.33a.56.56,0,0,0,.66-.56c.25-1.71.52-3.41.79-5.11.06-.39-.09-.54-.48-.54H17.14a.64.64,0,0,0-.65.41c-.86,1.76-1.73,3.5-2.59,5.26-.22.45-.16.53.37.53Zm19.18,0H40c.35,0,.51-.1.32-.48-.89-1.79-1.77-3.59-2.66-5.39a.53.53,0,0,0-.54-.34H32.37c-.38,0-.51.17-.45.52.27,1.71.54,3.4.79,5.11.06.45.27.59.69.58Zm9.62,0h3.28c.15,0,.35.06.42-.12s-.09-.25-.18-.35l-4.5-5.39a.9.9,0,0,0-.78-.34c-1.48,0-3,0-4.44,0-.43,0-.53.08-.32.5.88,1.72,1.73,3.46,2.58,5.2a.79.79,0,0,0,.82.51ZM7.8,15H11a.77.77,0,0,0,.8-.47c.86-1.77,1.74-3.53,2.62-5.29.19-.37.08-.45-.29-.45H9.6a.85.85,0,0,0-.72.35q-2.25,2.7-4.51,5.38c-.08.11-.24.21-.17.36s.28.11.43.11ZM38.42,36.47H43c.4,0,.58-.14.56-.56s0-1,0-1.58-.14-.57-.55-.56c-.87,0-1.73,0-2.59,0H33.89c-.46,0-.65.14-.62.61s0,1,0,1.47.15.63.61.62C35.39,36.45,36.91,36.47,38.42,36.47Z"/><path class="cls-1" d="M18.87,44.55c-2.8,0-5.6,0-8.41,0-1,0-1.36-.31-1.36-1.35,0-3.29,0-6.59,0-9.88,0-1.1.32-1.4,1.43-1.4H27.24c1.14,0,1.45.3,1.45,1.44,0,3.26,0,6.51,0,9.77,0,1.14-.31,1.42-1.46,1.42C24.45,44.56,21.66,44.55,18.87,44.55Zm0-1.85h7.25c.75,0,.76,0,.76-.73v-7.5c0-.67,0-.69-.68-.69H11.62c-.66,0-.68,0-.68.69V42c0,.72,0,.73.76.73Z"/><path class="cls-1" d="M27.15,5.26H12.71c-.91,0-1.3-.25-1.33-.85s.4-.94,1.3-1H41.24a7.55,7.55,0,0,1,1.06.07.85.85,0,0,1,.75.93.87.87,0,0,1-.82.82c-.21,0-.42,0-.64,0Z"/></g></g></g></svg>