<svg xmlns="http://www.w3.org/2000/svg" viewBox="0 0 32.77 32.36"><defs><style>.cls-1{fill:#004b70;}.cls-2{fill:#fff;}</style></defs><g id="Layer_2" data-name="Layer 2"><g id="Layer_1-2" data-name="Layer 1"><rect class="cls-1" width="32.77" height="32.36" rx="16.18"/><g id="_7OSflE" data-name="7OSflE"><path class="cls-2" d="M8.2,17.53V11.61a3.39,3.39,0,0,1,3.5-3.5h11a3.38,3.38,0,0,1,3.48,3.46q0,3.14,0,6.27a3.4,3.4,0,0,1-3.44,3.45c-3.14,0-6.27,0-9.41,0a1.44,1.44,0,0,0-1.15.49c-.83.87-1.7,1.71-2.55,2.57-.27.26-.55.49-1,.33s-.49-.52-.49-.92C8.21,21.68,8.2,19.6,8.2,17.53Zm1.47,4.69c.7-.7,1.32-1.3,1.91-1.93a1.52,1.52,0,0,1,1.21-.5h9.64a2,2,0,0,0,2.32-2.3c0-1.89,0-3.78,0-5.68a2,2,0,0,0-2.24-2.26c-3.54,0-7.08,0-10.62,0a2.51,2.51,0,0,0-1.14.23,2.05,2.05,0,0,0-1.1,2c0,3.31,0,6.62,0,9.93C9.65,21.86,9.66,22,9.67,22.22Z"/><path class="cls-2" d="M13.39,13.62a1.11,1.11,0,0,1,1.1,1.08,1.08,1.08,0,1,1-2.16,0A1.1,1.1,0,0,1,13.39,13.62Z"/><path class="cls-2" d="M22.06,14.7a1.08,1.08,0,1,1-1-1.08A1.08,1.08,0,0,1,22.06,14.7Z"/><path class="cls-2" d="M18.26,14.71a1.06,1.06,0,1,1-1.07-1.09A1.08,1.08,0,0,1,18.26,14.71Z"/></g></g></g></svg>