<svg xmlns="http://www.w3.org/2000/svg" viewBox="0 0 22.89 19.13"><defs><style>.cls-1{fill:#a7aeb6;}</style></defs><g id="Layer_2" data-name="Layer 2"><g id="Layer_1-2" data-name="Layer 1"><path class="cls-1" d="M22.89,14.17a1.5,1.5,0,0,1-1.14,1.11,2,2,0,0,1-.49,0c-.18,0-.25,0-.25.24,0,.64,0,1.29,0,1.94a1.51,1.51,0,0,1-1.66,1.65H17.73a1.49,1.49,0,0,1-1.54-1.56c0-.66,0-1.33,0-2,0-.2-.05-.28-.27-.28q-4.45,0-8.93,0c-.22,0-.27.08-.27.29,0,.65,0,1.29,0,1.94a1.5,1.5,0,0,1-1.6,1.61H3.47a1.5,1.5,0,0,1-1.58-1.57c0-.67,0-1.33,0-2,0-.22-.08-.29-.29-.27a1.44,1.44,0,0,1-1.48-.85A1.29,1.29,0,0,1,0,13.84C0,12.56,0,11.28,0,10A3.21,3.21,0,0,1,1.63,7.17a1.09,1.09,0,0,0,.48-.54C2.9,4.75,3.71,2.88,4.51,1A1.49,1.49,0,0,1,6,0H16.76a1.63,1.63,0,0,1,1.68,1.09C19.24,3,20.06,4.9,20.88,6.8a.41.41,0,0,0,.2.25,3.37,3.37,0,0,1,1.78,2.41l0,.06Zm-11.45.13h10a.42.42,0,0,0,.48-.48c0-1.28,0-2.57,0-3.86a1.89,1.89,0,0,0-.2-.88A2.3,2.3,0,0,0,19.45,7.7H3.15A2.33,2.33,0,0,0,1,9.81c0,1.35,0,2.69,0,4,0,.29.16.43.45.44h10Zm8.13-7.63c.22,0,.12-.09.09-.18q-1.1-2.55-2.18-5.11a.58.58,0,0,0-.6-.37H6a.58.58,0,0,0-.6.39c-.25.62-.52,1.22-.78,1.83L3.25,6.51c-.06.14-.07.2.12.17a3.53,3.53,0,0,1,.46,0H19.57ZM4.33,15.3H3.1c-.16,0-.21,0-.21.2,0,.68,0,1.36,0,2,0,.4.19.58.59.58H5.11c.43,0,.61-.19.61-.62v-2c0-.18,0-.25-.23-.24Zm14.25,0H17.39c-.15,0-.21,0-.21.2,0,.7,0,1.4,0,2.1a.46.46,0,0,0,.49.52h1.85a.46.46,0,0,0,.47-.47c0-.71,0-1.41,0-2.12,0-.17,0-.24-.23-.23Z"/><path class="cls-1" d="M4.32,8.58A2.43,2.43,0,0,1,6.71,11a2.38,2.38,0,0,1-2.42,2.4A2.38,2.38,0,0,1,1.9,11,2.43,2.43,0,0,1,4.32,8.58ZM5.72,11A1.41,1.41,0,1,0,2.9,11a1.44,1.44,0,0,0,1.4,1.41A1.46,1.46,0,0,0,5.72,11Z"/><path class="cls-1" d="M21,11A2.41,2.41,0,1,1,18.6,8.58,2.44,2.44,0,0,1,21,11Zm-1,0a1.41,1.41,0,1,0-1.43,1.41A1.45,1.45,0,0,0,20,11Z"/><path class="cls-1" d="M11.46,11.44h3.13a1,1,0,0,1,.35,0,.49.49,0,0,1,.34.49.48.48,0,0,1-.39.46,1.55,1.55,0,0,1-.37,0H8.38a2,2,0,0,1-.35,0A.53.53,0,0,1,7.61,12a.52.52,0,0,1,.38-.5,1.23,1.23,0,0,1,.33,0Z"/><path class="cls-1" d="M11.48,9.55h3.21c.37,0,.59.18.6.49a.54.54,0,0,1-.59.51H8.19a.54.54,0,0,1-.54-.32.48.48,0,0,1,.12-.54.55.55,0,0,1,.43-.14Z"/></g></g></svg>