<svg xmlns="http://www.w3.org/2000/svg" viewBox="0 0 32.36 32.36"><defs><style>.cls-1{fill:#a6adb5;}.cls-2{fill:#fff;}.cls-3{fill:none;stroke:#fff;stroke-linecap:round;stroke-miterlimit:10;stroke-width:1.2px;}</style></defs><g id="Layer_2" data-name="Layer 2"><g id="Layer_1-2" data-name="Layer 1"><rect class="cls-1" width="32.36" height="32.36" rx="16.18"/><path class="cls-2" d="M23.37,15.22l-.27.21-5.29,4a1.59,1.59,0,0,1-.41.26.72.72,0,0,1-.86-.24.71.71,0,0,1,.06-.89,2,2,0,0,1,.31-.27l5.32-4,.31-.24a1.49,1.49,0,0,0-.52-.1l-3.37-.34A.72.72,0,0,1,18,12.51a.76.76,0,0,1,.83-.34l2.15.22,3.39.35c.68.08.91.39.8,1-.32,1.82-.65,3.64-1,5.46a2.86,2.86,0,0,1-.07.28.72.72,0,0,1-.79.46.73.73,0,0,1-.58-.69,4.63,4.63,0,0,1,.14-1c.16-1,.33-1.93.5-2.89C23.43,15.37,23.48,15.28,23.37,15.22Z"/><polyline class="cls-3" points="6.27 19.43 11.08 13.46 16.54 19.45"/></g></g></svg>