<svg xmlns="http://www.w3.org/2000/svg" viewBox="0 0 25.73 25.72"><defs><style>.cls-1{fill:#a7aeb6;}</style></defs><g id="Layer_2" data-name="Layer 2"><g id="Layer_1-2" data-name="Layer 1"><path class="cls-1" d="M0,14.06H10.34a.46.46,0,0,0,.38-.15l6.72-6.73.06-.08c-.07-.08-.16,0-.24,0-.77,0-1.55,0-2.33,0-.26,0-.34-.09-.32-.33s0-.66,0-1,.06-.24.24-.24l5.07,0c.2,0,.28.06.28.27,0,1.7,0,3.4,0,5.1,0,.18-.06.26-.24.25H18.9c-.18,0-.24-.08-.24-.26V8.76a1.7,1.7,0,0,0-.05-.5c-.1,0-.13.07-.18.12L11.84,15a.61.61,0,0,0-.18.47v9.89c0,.37,0,.37-.37.37H0ZM5.8,24.18h4c.21,0,.29-.06.29-.29q0-4,0-8c0-.22-.08-.28-.3-.28-2.67,0-5.35,0-8,0-.22,0-.29.06-.29.29q0,4,0,8c0,.23.08.28.29.28Z"/><path class="cls-1" d="M5,0C5,.63,5,1.25,5,1.88c0,.18-.06.25-.25.25H3.71c-.19,0-.26-.07-.25-.25V0Z"/><path class="cls-1" d="M8.53,0c0,.43,0,.85,0,1.28,0,.17-.07.25-.25.25H6.61c-.16,0-.25,0-.25-.22,0-.43,0-.87,0-1.3Z"/><path class="cls-1" d="M19.18,0c0,.43,0,.87,0,1.3,0,.16-.06.23-.22.22H17.24c-.18,0-.23-.1-.22-.25V0Z"/><path class="cls-1" d="M22.74,0V1.28c0,.17-.06.25-.25.25H20.81c-.14,0-.24,0-.24-.19,0-.45,0-.89,0-1.33Z"/><path class="cls-1" d="M12.05,0c0,.44,0,.88,0,1.33,0,.13-.05.19-.19.19H10.12c-.14,0-.2-.06-.2-.19,0-.45,0-.89,0-1.33Z"/><path class="cls-1" d="M15.61,0c.05.45,0,.9,0,1.35,0,.13-.07.17-.19.17H13.69c-.14,0-.2-.06-.2-.19,0-.45,0-.89,0-1.33Z"/><path class="cls-1" d="M25.71,0c0,.64,0,1.29,0,1.93,0,.13,0,.2-.19.19H24.38c-.14,0-.2-.06-.2-.19,0-.64,0-1.29,0-1.93Z"/><path class="cls-1" d="M5,4.62v.85c0,.15-.06.21-.21.21H3.66c-.15,0-.2-.07-.2-.21V3.74c0-.16.06-.23.22-.23H4.81c.16,0,.22.07.22.23Z"/><path class="cls-1" d="M5,11.72v.86c0,.16-.07.22-.22.22H3.68c-.16,0-.22-.07-.22-.23v-1.7c0-.17.06-.24.23-.24H4.8c.17,0,.24.07.23.24Z"/><path class="cls-1" d="M5,8.17C5,8.44,5,8.7,5,9s0,.29-.27.28h-1c-.18,0-.26-.05-.25-.24V7.33c0-.18.08-.25.25-.25h1c.21,0,.28.09.27.29S5,7.9,5,8.17Z"/><path class="cls-1" d="M14.06,22.36h-.82c-.17,0-.25-.05-.25-.23,0-.37,0-.73,0-1.1,0-.15.06-.24.22-.24H15a.19.19,0,0,1,.21.22c0,.38,0,.75,0,1.13,0,.16-.07.22-.23.22Z"/><path class="cls-1" d="M21.17,22.36h-.85c-.17,0-.25-.06-.25-.23,0-.37,0-.74,0-1.1,0-.18.08-.24.24-.24H22c.17,0,.23.08.23.25,0,.36,0,.72,0,1.07,0,.19-.08.26-.26.25Z"/><path class="cls-1" d="M17.62,22.36h-.85c-.16,0-.22-.06-.22-.22V21c0-.15.06-.22.2-.22h1.73c.14,0,.22.06.21.21v1.13c0,.18-.08.23-.24.23Z"/><path class="cls-1" d="M25.72,4.61c0,.28,0,.55,0,.83s-.07.25-.25.25q-.52,0-1,0c-.17,0-.24-.06-.24-.24,0-.57,0-1.14,0-1.7,0-.18.07-.24.24-.24h1c.18,0,.26.06.25.25S25.72,4.33,25.72,4.61Z"/><path class="cls-1" d="M25.72,8.16V9c0,.17,0,.25-.23.24h-1.1c-.15,0-.21-.06-.21-.21V7.29c0-.14.06-.2.19-.21h1.15c.15,0,.21.08.2.23Z"/><path class="cls-1" d="M24.18,11.71c0-.27,0-.55,0-.82s.05-.27.24-.26H25.5c.16,0,.22.06.22.22v1.73c0,.15,0,.22-.2.22H24.39c-.16,0-.21-.08-.21-.23S24.18,12,24.18,11.71Z"/><path class="cls-1" d="M24.18,15.21c0-.26,0-.53,0-.8s.05-.25.23-.25h1.1c.16,0,.22.08.21.24v1.7c0,.18-.07.24-.23.23H24.43c-.2,0-.26-.08-.25-.27S24.18,15.5,24.18,15.21Z"/><path class="cls-1" d="M25.72,18.78v.88c0,.16-.06.23-.22.23-.37,0-.74,0-1.1,0-.17,0-.22-.08-.22-.24,0-.57,0-1.13,0-1.7,0-.18.06-.24.24-.24h1.07c.18,0,.24.08.23.24Z"/><path class="cls-1" d="M24.71,22.36h-.8c-.16,0-.23-.07-.22-.23,0-.37,0-.73,0-1.1,0-.16.06-.24.22-.24h1.63c.13,0,.19.07.19.2v1.16c0,.15-.06.21-.21.21Z"/></g></g></svg>