<svg xmlns="http://www.w3.org/2000/svg" viewBox="0 0 56.14 56.15"><defs><style>.cls-1{fill:gray;}</style></defs><g id="Layer_2" data-name="Layer 2"><g id="Layer_1-2" data-name="Layer 1"><path class="cls-1" d="M55.55,56.13q-27.52,0-55,0c-.41,0-.5-.1-.5-.51Q0,28.12,0,.6A1.24,1.24,0,0,1,1.21,0H54.88c.93,0,1.26.33,1.26,1.25V54.93A1.24,1.24,0,0,1,55.55,56.13ZM42,54.22H53.59c.32,0,.6,0,.6-.45s-.23-.44-.54-.45A72,72,0,0,1,46,52.67a45,45,0,0,1-12.68-3.43A25.06,25.06,0,0,1,20.68,36.89a45.51,45.51,0,0,1-3.83-15.47c-.22-2.24-.29-4.48-.37-6.72-.15-3.89.08-7.78.2-11.66,0-1.1.1-1.08-1-1.09-.46,0-.64.15-.65.63C15,4.19,15,5.79,15,7.4c0,4.07-.16,8.13-.33,12.2s-.46,8.37-.87,12.55a101,101,0,0,1-1.89,12.48c-.75,3.24-1.56,6.46-3.49,9.26-.21.31,0,.33.23.33.62,0,1.24,0,1.86,0s.75-.14.86-.69a9.39,9.39,0,0,1,18.48,0c.1.59.34.74.89.73C34.48,54.21,38.26,54.22,42,54.22Zm12.14-8.37h0c0-.41,0-.81,0-1.21S54,44,53.56,44a33,33,0,0,1-5-.54A25.94,25.94,0,0,1,30,30.08c-3.73-6.58-5.28-13.82-6.1-21.25-.23-2.08-.42-4.17-.46-6.27,0-.3-.06-.6-.48-.6s-.42.31-.41.61c0,1.17,0,2.34.06,3.51a117.69,117.69,0,0,0,.93,14.29,45.38,45.38,0,0,0,3,11.68A23.33,23.33,0,0,0,42.67,46.13a47.16,47.16,0,0,0,11.08,1.5c.32,0,.44-.12.44-.42C54.18,46.76,54.18,46.3,54.18,45.85ZM18.43,11.09c.11,3.29.14,6.5.43,9.7a55.85,55.85,0,0,0,1.78,10.28,28.16,28.16,0,0,0,3.72,8.25A23.72,23.72,0,0,0,36,48.18a54.77,54.77,0,0,0,17.1,3.1c1.19.06,1.19,0,1.13-1.15,0-.37-.15-.53-.53-.53a38.6,38.6,0,0,1-3.87-.21A37.2,37.2,0,0,1,38,46.61a24,24,0,0,1-9.7-7.46A31.73,31.73,0,0,1,23,27.89a81.26,81.26,0,0,1-2.32-17.64c-.12-2.55-.06-5.11-.17-7.66,0-.47-.18-.68-.65-.63a4,4,0,0,1-.49,0c-.51-.05-.67.21-.69.68C18.6,5.48,18.51,8.33,18.43,11.09ZM37.46,2c-.75,0-1.5,0-2.25,0-.36,0-.52.09-.49.5.08.91.13,1.82.26,2.72a23.05,23.05,0,0,0,6.59,13.65,19,19,0,0,0,12,5.39c.42,0,.6-.12.59-.56q0-2.16,0-4.32c0-.44-.16-.61-.6-.65a12.11,12.11,0,0,1-4.13-1.19,15.86,15.86,0,0,1-7-7.19,20.67,20.67,0,0,1-2.21-7.8c0-.42-.21-.57-.62-.56C38.88,2,38.17,2,37.46,2ZM13,7.86c0-1.73,0-3.47,0-5.2,0-.51-.13-.77-.67-.7A2.54,2.54,0,0,1,12,2c-.5-.06-.65.18-.66.66-.09,4.56-.13,9.12-.39,13.68-.16,2.8-.34,5.61-.6,8.4C10,28.13,9.55,31.55,8.9,34.94a41.85,41.85,0,0,1-3,10.21c-.84,1.76-1.83,3.42-3.74,4.26a.46.46,0,0,0-.25.46c0,1.29,0,2.59,0,3.88,0,.36.19.48.52.47s1,0,1.43,0a3.24,3.24,0,0,0,3.19-1.79,17.58,17.58,0,0,0,1.79-4,70.69,70.69,0,0,0,2.5-12.64c.61-4.74,1-9.51,1.2-14.28C12.79,17,12.91,12.4,13,7.86ZM54.18,40.21c0-.44,0-.88,0-1.31s-.13-.48-.45-.5L52,38.21a23.9,23.9,0,0,1-11.21-4.34A31.07,31.07,0,0,1,31,22.21a46.69,46.69,0,0,1-4.87-19.6c0-.31,0-.67-.44-.64s-.37.33-.35.6c.18,2.71.37,5.42.73,8.12A58.41,58.41,0,0,0,29.38,24.1,31.3,31.3,0,0,0,35.5,34.2a23.57,23.57,0,0,0,12.15,7,29,29,0,0,0,6,.78c.43,0,.61-.14.59-.57S54.19,40.61,54.18,40.21Zm0-11.66c0-.59,0-1.17,0-1.75,0-.36-.13-.53-.5-.56-.55,0-1.09-.1-1.63-.18a21.1,21.1,0,0,1-15.72-10.7A27,27,0,0,1,32.75,3.08C32.67,1.93,32.9,2,31.53,2h-.16c-.34,0-.44.18-.41.5a42.26,42.26,0,0,0,.75,5.91,32.45,32.45,0,0,0,6.21,13.74,21.62,21.62,0,0,0,15.67,8.66c.42,0,.61-.08.6-.52S54.19,29.11,54.19,28.55Zm0,6.08c0-.4,0-.81,0-1.21s-.2-.65-.64-.68-1.2-.08-1.79-.17a22.64,22.64,0,0,1-12.7-6.26C33.39,20.86,30.51,14,29.34,6.38A27.12,27.12,0,0,1,29,2.57c0-.33-.08-.66-.52-.59s-.28.38-.28.62a45.91,45.91,0,0,0,1.22,9.26A38.54,38.54,0,0,0,35.68,26a24.58,24.58,0,0,0,12.39,9.31,24.27,24.27,0,0,0,5.47,1.05c.45,0,.69-.1.65-.6S54.19,35,54.19,34.63ZM1.92,35.9H2l.06-.2A86.49,86.49,0,0,0,5,19.74c.24-2.24.39-4.5.48-6.76.15-3.5.25-7,.09-10.5,0-.37-.16-.53-.53-.52C4.3,2,3.55,2,2.81,2c-.89,0-.89,0-.89.87V35.9ZM54.19,9.38V2.7c0-.71,0-.74-.75-.74H42.93c-.68,0-.77.09-.69.76a17.74,17.74,0,0,0,4.13,9.89,11.57,11.57,0,0,0,6.91,4c.91.16.91.16.91-.72ZM7.6,7.08A121.74,121.74,0,0,1,6.41,25,70.55,70.55,0,0,1,3.93,36.56a14.23,14.23,0,0,1-1.71,3.89,1.55,1.55,0,0,0-.3,1c0,1.6,0,3.21,0,4.82,0,.31-.17.81.1.9s.54-.35.75-.61a15.5,15.5,0,0,0,2.56-5.47A74.4,74.4,0,0,0,7.85,28.25c.64-5,1-10,1.19-15.09.14-3.4.17-6.79.24-10.18,0-1,0-1-1.06-1-.48,0-.63.17-.63.64C7.62,4.09,7.6,5.59,7.6,7.08Zm13,47.14h6.12c1.3,0,1.3,0,.91-1.22a7.4,7.4,0,0,0-14.25.45c-.17.69-.1.77.6.77Z"/><path class="cls-1" d="M49.58,10.38a3.8,3.8,0,1,1,0-7.59,3.86,3.86,0,0,1,3.81,3.82A3.83,3.83,0,0,1,49.58,10.38Zm-.09-2a1.76,1.76,0,0,0,1.86-1.73A1.8,1.8,0,0,0,49.63,4.8a1.75,1.75,0,0,0-1.84,1.74A1.72,1.72,0,0,0,49.49,8.36Z"/></g></g></svg>