<svg xmlns="http://www.w3.org/2000/svg" viewBox="0 0 63.76 56.98"><defs><style>.cls-1{fill:gray;}</style></defs><g id="Layer_2" data-name="Layer 2"><g id="Layer_1-2" data-name="Layer 1"><path class="cls-1" d="M63.76,56.43a1.52,1.52,0,0,1-1.31.55H1.34a1.42,1.42,0,0,1-.9-.17.94.94,0,0,1-.41-1A.86.86,0,0,1,.86,55c.58,0,.69-.27.66-.77A1.84,1.84,0,0,1,3,52.06c.27-.07.29-.27.28-.49A4.38,4.38,0,0,1,4.05,49a1.26,1.26,0,0,0,.18-.78c0-4.1,0-8.21,0-12.32,0-.51-.16-.7-.68-.67s-1.32,0-2,0A1.21,1.21,0,0,1,.4,34.51a1.18,1.18,0,0,1,.15-1.34q2.4-3,4.84-5.94a2.61,2.61,0,0,1,2.08-.8,6.26,6.26,0,0,1,.75,0c.44,0,.63-.13.63-.6,0-2.84,0-5.69,0-8.53,0-.4-.15-.56-.55-.55s-1,0-1.43,0a1.28,1.28,0,0,1-1-2.17c1.54-1.9,3.07-3.81,4.63-5.7a2.53,2.53,0,0,1,2-.89c.5,0,1,0,1.49,0s.54-.14.52-.52a4.56,4.56,0,0,1,0-.74c0-.6,0-1.05-.7-1.32A1.45,1.45,0,0,1,13,4c0-.76,0-1.53,0-2.3A1.63,1.63,0,0,1,14.69,0h9.77a1.63,1.63,0,0,1,1.73,1.65c0,.74,0,1.49,0,2.24a1.66,1.66,0,0,1-1.12,1.69.51.51,0,0,0-.36.57c0,2.24-.32,1.8,1.7,1.82C30.23,8,34,8,37.86,8A1.41,1.41,0,0,0,39,7.47C40.16,6.22,41.3,5,42.45,3.76a1.6,1.6,0,0,1,2.55,0q7.14,7.73,14.27,15.44c1.12,1.21,2.22,2.41,3.34,3.61a1.35,1.35,0,0,1,.46,1.56,1.32,1.32,0,0,1-1.43.75c-1,0-2,0-3,0-.43,0-.58.15-.58.58,0,2.66,0,5.31,0,8a1.66,1.66,0,0,0,.28.87c.81,1.4,1.61,2.8,2.43,4.2a1.49,1.49,0,0,1,0,1.89c-.21.24-.06.43,0,.62L62,43.39a1.41,1.41,0,0,1-.13,1.92c-.2.19-.14.36,0,.55l1.88,3.22v1A1.72,1.72,0,0,1,62.1,51H59.87c-.39,0-.57.14-.56.55q0,1.48,0,3c0,.4.14.56.54.55.87,0,1.74,0,2.61,0a1.44,1.44,0,0,1,1.3.55Zm-3.6-33.28a2.23,2.23,0,0,0-.21-.29Q52.16,14.43,44.36,6c-.63-.67-.64-.67-1.26,0Q36,13.65,29,21.3L27.3,23.1c2.33.23,2.46.18,3.89-1.45l.08-.1L42.77,9.13c.7-.75,1.22-.74,1.93,0,1.27,1.35,2.52,2.7,3.77,4.06a13.05,13.05,0,0,1,1.1,1.26.89.89,0,0,1-.14,1.29.91.91,0,0,1-1.29,0,4.67,4.67,0,0,1-.45-.44c-1.15-1.24-2.33-2.48-3.46-3.75-.4-.45-.64-.4-1,0C42.12,12.81,41,14,39.88,15.2c-2.68,2.89-5.36,5.79-8,8.67a1.5,1.5,0,0,0-.44,1.06q0,14.72,0,29.43c0,.53.2.67.7.66,1.64,0,3.28,0,4.91,0,.83,0,.83,0,.83-.81V40.26a1.68,1.68,0,0,1,1.65-1.88c2.82,0,5.64,0,8.46,0a1.56,1.56,0,0,1,1.62,1.37c.06,1.43,0,2.86,0,4.29a.87.87,0,0,1-.92.84.9.9,0,0,1-1-.77,3.56,3.56,0,0,1-.08-.8c0-.74,0-1.49,0-2.24,0-.51-.18-.68-.69-.68q-3.16,0-6.35,0c-.5,0-.69.16-.69.68q0,6.66,0,13.32c0,.49.18.64.66.63,2.11,0,4.23,0,6.34,0,.55,0,.73-.16.72-.71,0-1.78,0-3.56,0-5.35a4,4,0,0,1,.09-.92.89.89,0,0,1,1-.73.93.93,0,0,1,.95.82,2.58,2.58,0,0,1,0,.62c0,1.87,0,3.74,0,5.6,0,.52.17.69.68.67,1.23,0,2.45,0,3.67,0,.43,0,.6-.14.59-.58,0-.95,0-1.9,0-2.86,0-.5-.2-.65-.67-.63-.74,0-1.49,0-2.24,0-1.47-.09-2-1-1.25-2.3.5-.89,1-1.76,1.52-2.64.14-.24.29-.45,0-.72a1.34,1.34,0,0,1-.15-1.77c.42-.76.85-1.52,1.29-2.27a.53.53,0,0,0,0-.72A1.34,1.34,0,0,1,53,38.94q1.38-2.43,2.81-4.84a1.59,1.59,0,0,0,.27-.87q0-4.12,0-8.27a1.45,1.45,0,0,0-.45-1.11c-.81-.84-1.59-1.69-2.38-2.54S51.78,19.76,51.09,19a.93.93,0,0,1,0-1.39,1,1,0,0,1,1.4.05c.23.21.43.45.64.68l4.15,4.47a1,1,0,0,0,.74.39C58.72,23.14,59.38,23.15,60.16,23.15ZM3.09,33.2l.41,0H16.19a3.64,3.64,0,0,1,.74,0,.9.9,0,0,1,.75.82.93.93,0,0,1-.51,1,1.78,1.78,0,0,1-.85.12H7.05c-.87,0-.87,0-.87.83V46.17c0,.24,0,.49,0,.74s.07.33.34.3c.73-.09.84-.19.84-.93,0-2.05,0-4.11,0-6.16a1.66,1.66,0,0,1,1.79-1.78c1,0,2,0,3,0,1.34,0,1.94.59,1.94,1.92,0,1.93,0,3.86,0,5.78,0,.17-.08.43.2.44s.34-.19.34-.42,0-.33,0-.5c0-1.82,0-3.65,0-5.47a1.65,1.65,0,0,1,1.76-1.75q1.65,0,3.3,0a1.61,1.61,0,0,1,1.72,1.71c0,3,0,6,0,9a1.56,1.56,0,0,1-.31,1.05c-.27.31-.54.57-.21,1s.1.87.46,1a2,2,0,0,1,1.07,2.23c0,.53.16.68.67.67,1.85,0,3.69,0,5.54,0,.5,0,.69-.14.69-.66q0-9.27,0-18.54c0-.49-.16-.65-.64-.64-1.83,0-3.65,0-5.48,0-.7,0-1.41,0-2.11,0a.91.91,0,0,1-.88-.67.94.94,0,0,1,.24-1,1.24,1.24,0,0,1,1-.29c2.41,0,4.81,0,7.22,0,.52,0,.69-.16.68-.67,0-1.16,0-2.33,0-3.49,0-.5-.18-.63-.65-.63q-10.57,0-21.15,0A1.2,1.2,0,0,0,6.52,29c-.45.59-.94,1.16-1.41,1.74ZM8.34,14.67c.22,0,.31.05.41.05H31.84a.93.93,0,0,0,.77-.31c1.22-1.33,2.45-2.65,3.66-4,.09-.09.25-.17.13-.39H25.16c-.37,0-.42.22-.49.51a1.62,1.62,0,0,1-1.73,1.38H16.16a1.48,1.48,0,0,1-1.58-1.14c-.13-.68-.47-.83-1.07-.75a3.86,3.86,0,0,1-.68,0,1.11,1.11,0,0,0-1,.36Zm22.07,2.09H11.28c-.25,0-.37.12-.4.38-.07.53.17.67.67.67,3.3,0,6.6,0,9.9,0a1.7,1.7,0,0,1,1.89,1.87v3.49a1.73,1.73,0,0,1-1.95,1.95c-3.27,0-6.55,0-9.83,0-.56,0-.7.2-.7.72s.34.61.77.61H26.32c.76,0,1.53,0,2.3,0,.47,0,.77,0,.77-.65s-.23-.7-.74-.68c-.95,0-1.91,0-2.86,0a1.32,1.32,0,0,1-1.4-.72,1.35,1.35,0,0,1,.43-1.56L28,19.36C28.79,18.54,29.53,17.72,30.41,16.76ZM19.62,5.69c-.85,0-1.7,0-2.55,0-.43,0-.59.15-.58.58,0,1,0,2.07,0,3.11,0,.41.11.6.56.6q2.52,0,5,0c.43,0,.59-.15.58-.58,0-1,0-2.08,0-3.11,0-.48-.18-.61-.63-.6C21.24,5.71,20.43,5.69,19.62,5.69ZM61.33,48.92l-1.74-3c-.16-.27-.4-.26-.65-.26-1.33,0-2.65,0-4,0a.82.82,0,0,0-.8.45c-.43.78-.87,1.56-1.33,2.31-.25.41-.17.54.3.54,1.36,0,2.73,0,4.1,0ZM14,19.76c-.87,0-1.74,0-2.61,0-.39,0-.56.14-.56.54,0,.77,0,1.53,0,2.3,0,.38.12.57.54.57,1.76,0,3.52,0,5.28,0,.34,0,.49-.12.49-.47,0-.81,0-1.62,0-2.43,0-.38-.16-.51-.52-.5ZM14.35,52h4.28c.16,0,.38.07.44-.14s-.15-.28-.28-.37a.68.68,0,0,0-.22-.12,1.41,1.41,0,0,1-1-1.15,2.22,2.22,0,0,0-1.94-1.76,2.31,2.31,0,0,0-2.51,1.21c-.55.94-.71,1-1.75.76a1.44,1.44,0,0,0-1.71.79c-.26.56-.15.77.46.78Zm-2.23-7.91c0-1.08,0-2.16,0-3.23,0-.45-.15-.64-.62-.62s-1,0-1.55,0-.56.12-.56.53c0,2,0,4,0,6.08,0,.24,0,.46.28.57a6.55,6.55,0,0,1,1.12.77.61.61,0,0,0,1-.12,1.36,1.36,0,0,0,.36-.95C12.11,46.15,12.12,45.14,12.12,44.13Zm7.33.43c0-1.19,0-2.37,0-3.55,0-.58-.19-.78-.75-.73a11.39,11.39,0,0,1-1.43,0c-.41,0-.55.16-.55.55,0,1.8,0,3.6,0,5.41a.6.6,0,0,0,.39.62,4.35,4.35,0,0,1,1.77,1.52c.1.15.17.4.4.33s.15-.32.15-.5Zm.07-40.82c1.34,0,2.69,0,4,0,.46,0,.65-.16.6-.61a2.16,2.16,0,0,1,0-.44c.07-.56-.14-.75-.72-.75C21,2,18.59,2,16.16,2,14.93,2,15,1.75,15,3.12c0,.52.21.63.67.62C17,3.72,18.23,3.74,19.52,3.74ZM12,55h7.89c.38,0,.66,0,.63-.53s-.32-.41-.61-.41H4c-.29,0-.39.16-.41.43,0,.51.29.51.65.51Zm44.89-11.4h2.24c.59,0,.64-.09.36-.59s-.61-1-.89-1.57a.77.77,0,0,0-.75-.43c-2.4-.07-2.39-.07-3.55,2-.27.49-.1.57.35.57ZM21.3,21.45c-.05-2,.34-1.66-1.55-1.69h-.07c-.34,0-.48.15-.48.48,0,.81,0,1.61,0,2.42,0,.33.13.5.48.49,2,0,1.57.24,1.62-1.45ZM6.35,52c1,0,1,0,1.26-1a3,3,0,0,1,.74-1.42c.39-.39.2-.47-.21-.54A2.49,2.49,0,0,0,5.4,50.65C5,51.79,5.15,52,6.35,52ZM57,39h1.24c.3,0,.36-.12.2-.38l-1.23-2.14c-.18-.31-.32-.23-.47,0-.39.68-.78,1.36-1.18,2-.19.32-.09.45.26.44Zm-.37,14v1.68c0,.21.06.37.31.38s.38-.12.38-.37V51.4c0-.23-.07-.42-.35-.42s-.34.18-.34.41Z"/><path class="cls-1" d="M43.68,35.06H38.15a1.64,1.64,0,0,1-1.8-1.76c0-.46,0-.92,0-1.37A1.62,1.62,0,0,1,37.8,30.2c.61-.07.67-.35.67-.85,0-2.11,0-4.22,0-6.34,0-1.36.61-2,2-2h6.71A1.65,1.65,0,0,1,49,22.87c0,2.2,0,4.39,0,6.59,0,.43.07.66.59.72A1.65,1.65,0,0,1,51.1,32c0,.47,0,1,0,1.43a1.62,1.62,0,0,1-1.7,1.66ZM40.5,26.58c0,1,0,2,0,3,0,.42.17.58.59.58h5.29c.42,0,.59-.16.59-.59q0-3,0-6c0-.46-.17-.61-.62-.61-1.74,0-3.49,0-5.23,0-.45,0-.63.15-.62.61C40.51,24.59,40.5,25.58,40.5,26.58Zm3.22,5.61H39c-.39,0-.66.08-.62.55s.37.38.65.38h9.33c.32,0,.7.09.71-.45s-.4-.47-.74-.47Z"/><path class="cls-1" d="M42.37,48.38c0,.33,0,.67,0,1a1,1,0,0,1-1,1,1,1,0,0,1-1-1,13.89,13.89,0,0,1,0-2,1,1,0,0,1,1-1,1,1,0,0,1,1,1C42.39,47.72,42.37,48.05,42.37,48.38Z"/><path class="cls-1" d="M22,44.48c0-1.45,0-2.91,0-4.36a1.62,1.62,0,0,1,1.76-1.78q1.65,0,3.3,0A1.61,1.61,0,0,1,28.8,40q0,4.55,0,9.08a1.61,1.61,0,0,1-1.71,1.66H23.73A1.61,1.61,0,0,1,22,49C22,47.5,22,46,22,44.48Zm4.74.1c0-1.25,0-2.49,0-3.73,0-.38-.11-.58-.53-.56s-1.12,0-1.68,0c-.38,0-.51.16-.51.52,0,2.48,0,5,0,7.45,0,.41.19.55.58.53s1,0,1.55,0,.61-.18.6-.62C26.76,47,26.77,45.78,26.77,44.58Z"/></g></g></svg>