<svg xmlns="http://www.w3.org/2000/svg" viewBox="0 0 57.5 40.12"><defs><style>.cls-1{fill:#fff;}</style></defs><g id="Layer_2" data-name="Layer 2"><g id="Layer_1-2" data-name="Layer 1"><g id="vwIsda"><path class="cls-1" d="M28.56.06c4.76,0,9.51,0,14.27,0C50.41.1,56.07,4.71,57,12.25a61.45,61.45,0,0,1-.08,16.2A13.5,13.5,0,0,1,43.32,40c-9.75.06-19.51.11-29.26.05C6,40,.05,34,0,25.81Q0,20,0,14.25A13.93,13.93,0,0,1,14.48,0c4.69,0,9.39,0,14.08,0Zm.1,2.77H14.76C8.19,2.93,3.66,6.87,3,13.38A65.36,65.36,0,0,0,3,26.72c.66,6.42,5.2,10.49,11.61,10.54q14.09.09,28.17,0a11.31,11.31,0,0,0,11.49-11.6c0-3.61,0-7.22,0-10.84,0-7.14-4.86-11.94-12-12C37.69,2.82,33.18,2.83,28.66,2.83Z" transform="translate(0)"/><path class="cls-1" d="M21.76,20c0-2-.05-4.09,0-6.13s1.09-2.68,2.81-1.72c3.67,2.06,7.32,4.15,10.93,6.31,1.82,1.09,1.82,2.15,0,3.24Q30,25,24.44,28.06c-1.53.85-2.59.2-2.65-1.59-.08-2.16,0-4.33,0-6.5Z" transform="translate(0)"/></g></g></g></svg>